<!-- Generated by IcoMoon.io -->
<svg version="1.1" xmlns="http://www.w3.org/2000/svg" width="27" height="32" viewBox="0 0 27 32">
<path d="M22.576 16.902c-0.015-2.597 1.157-4.554 3.525-5.996-1.324-1.904-3.327-2.951-5.968-3.153-2.5-0.197-5.236 1.462-6.238 1.462-1.058 0-3.478-1.393-5.383-1.393-3.93 0.062-8.106 3.145-8.106 9.42 0 1.854 0.337 3.769 1.013 5.742 0.903 2.597 4.158 8.96 7.553 8.857 1.776-0.042 3.031-1.264 5.342-1.264 2.242 0 3.404 1.264 5.385 1.264 3.425-0.049 6.369-5.834 7.227-8.438-4.594-2.174-4.348-6.366-4.348-6.498zM18.588 5.289c1.924-2.292 1.749-4.378 1.692-5.129-1.698 0.098-3.664 1.162-4.784 2.468-1.233 1.401-1.957 3.134-1.802 5.087 1.836 0.14 3.513-0.807 4.894-2.425z"></path>
</svg>
