<svg xmlns="http://www.w3.org/2000/svg" fill="none" viewBox="0 0 22 26">
  <path fill="#fff" d="M18.343 13.733c-.012-2.11.94-3.7 2.864-4.872-1.076-1.547-2.703-2.398-4.849-2.562-2.031-.16-4.254 1.188-5.068 1.188-.86 0-2.826-1.132-4.374-1.132C3.723 6.405.33 8.91.33 14.009c0 1.506.274 3.062.823 4.665.734 2.11 3.378 7.28 6.137 7.196 1.443-.034 2.463-1.027 4.34-1.027 1.822 0 2.766 1.027 4.375 1.027 2.783-.04 5.175-4.74 5.872-6.856-3.733-1.766-3.533-5.172-3.533-5.28Zm-3.24-9.436C16.666 2.435 16.524.74 16.478.13c-1.38.08-2.977.944-3.887 2.005-1.002 1.138-1.59 2.546-1.464 4.133 1.492.114 2.854-.656 3.976-1.97Z"/>
</svg>
