<svg aria-hidden="true" style="position: absolute; width: 0; height: 0; overflow: hidden;" version="1.1" xmlns="http://www.w3.org/2000/svg" xmlns:xlink="http://www.w3.org/1999/xlink">
<defs>
<symbol id="icon-arrow" viewBox="0 0 18 32">
<path stroke-linejoin="miter" stroke-linecap="butt" stroke-miterlimit="4" stroke-width="1.9394" d="M16.97 0.97l-15.030 15.030 15.030 15.030"></path>
</symbol>
<symbol id="icon-close" viewBox="0 0 34 32">
<path stroke-linejoin="miter" stroke-linecap="butt" stroke-miterlimit="4" stroke-width="3.7647" d="M32 1.882l-30.118 28.235M1.882 1.882l30.118 28.235"></path>
</symbol>
<symbol id="icon-Logo" viewBox="0 0 114 32">
<path d="M48.355 19.645c-0.57 0-1.085-0.090-1.544-0.271-0.459-0.188-0.842-0.459-1.148-0.814l1.325-1.565c0.195 0.237 0.386 0.417 0.574 0.543 0.188 0.118 0.383 0.177 0.584 0.177 0.529 0 0.793-0.303 0.793-0.908v-2.776h-2.483v-1.857h4.915v4.487c0 1.002-0.257 1.75-0.772 2.243s-1.263 0.741-2.243 0.741zM56.329 19.645c-0.591 0-1.141-0.094-1.649-0.282-0.501-0.188-0.936-0.452-1.304-0.793-0.369-0.348-0.657-0.755-0.866-1.221-0.202-0.466-0.303-0.974-0.303-1.523 0-0.557 0.101-1.064 0.303-1.523 0.209-0.466 0.497-0.87 0.866-1.21 0.369-0.348 0.803-0.616 1.304-0.803 0.508-0.188 1.057-0.282 1.649-0.282 0.598 0 1.148 0.094 1.649 0.282s0.936 0.456 1.304 0.803c0.369 0.341 0.654 0.744 0.856 1.21 0.209 0.459 0.313 0.967 0.313 1.523 0 0.55-0.104 1.057-0.313 1.523-0.202 0.466-0.487 0.873-0.856 1.221-0.369 0.341-0.803 0.605-1.304 0.793s-1.050 0.282-1.649 0.282zM56.329 17.652c0.23 0 0.442-0.042 0.637-0.125 0.202-0.083 0.376-0.202 0.522-0.355 0.153-0.16 0.271-0.351 0.355-0.574 0.083-0.23 0.125-0.487 0.125-0.772s-0.042-0.539-0.125-0.762c-0.083-0.23-0.202-0.421-0.355-0.574-0.146-0.16-0.32-0.282-0.522-0.365-0.195-0.083-0.407-0.125-0.637-0.125s-0.445 0.042-0.647 0.125c-0.195 0.083-0.369 0.205-0.522 0.365-0.146 0.153-0.261 0.344-0.344 0.574-0.083 0.223-0.125 0.477-0.125 0.762s0.042 0.543 0.125 0.772c0.083 0.223 0.198 0.414 0.344 0.574 0.153 0.153 0.327 0.271 0.522 0.355 0.202 0.083 0.417 0.125 0.647 0.125zM62.907 19.478v-3.203l0.563 1.471-3.318-5.572h2.598l2.243 3.809h-1.513l2.264-3.809h2.379l-3.297 5.572 0.543-1.471v3.203h-2.463zM70.733 15.283h3.214v1.857h-3.214v-1.857zM70.899 19.478h-2.462v-7.304h5.937v1.857h-3.475v5.447zM78.648 19.645c-1.12 0-1.993-0.303-2.619-0.908s-0.939-1.454-0.939-2.546v-4.017h2.463v3.944c0 0.557 0.101 0.953 0.303 1.19 0.202 0.23 0.473 0.344 0.814 0.344 0.348 0 0.619-0.115 0.814-0.344 0.202-0.237 0.303-0.633 0.303-1.19v-3.944h2.421v4.017c0 1.092-0.313 1.941-0.939 2.546s-1.499 0.908-2.619 0.908zM83.335 19.478v-7.304h2.463v5.395h3.297v1.91h-5.76zM92.904 19.478v-7.304h3.517c0.682 0 1.27 0.111 1.763 0.334 0.501 0.223 0.887 0.543 1.158 0.96 0.271 0.41 0.407 0.897 0.407 1.461s-0.136 1.050-0.407 1.461c-0.271 0.41-0.657 0.73-1.158 0.96-0.494 0.223-1.082 0.334-1.763 0.334h-2.15l1.096-1.054v2.849h-2.463zM95.366 16.901l-1.096-1.117h1.993c0.341 0 0.591-0.077 0.751-0.23 0.167-0.153 0.25-0.362 0.25-0.626s-0.083-0.473-0.25-0.626c-0.16-0.153-0.41-0.23-0.751-0.23h-1.993l1.096-1.117v3.944zM102.81 14.887h3.256v1.774h-3.256v-1.774zM102.977 17.621h3.652v1.857h-6.073v-7.304h5.937v1.857h-3.517v3.59zM109.164 19.478v-5.395h-2.139v-1.91h6.741v1.91h-2.139v5.395h-2.463z"></path>
<path d="M21.399 16.959c-1.44-2.246-3.892-3.588-6.56-3.588s-5.12 1.341-6.56 3.588l-3.47 5.413c-0.576 0.898-0.841 1.936-0.768 3s0.478 2.056 1.171 2.867c0.694 0.811 1.61 1.365 2.65 1.603s2.107 0.136 3.084-0.293l0.065-0.029c2.459-1.059 5.268-1.049 7.72 0.029 0.633 0.278 1.303 0.419 1.979 0.419 0.368 0 0.738-0.042 1.104-0.125 1.040-0.238 1.957-0.792 2.651-1.603s1.099-1.802 1.172-2.867c0.073-1.065-0.192-2.102-0.768-3l-3.47-5.413z"></path>
<path d="M5.743 16.952c1.032-0.397 1.816-1.228 2.208-2.342 0.373-1.060 0.342-2.257-0.086-3.37s-1.208-2.021-2.196-2.558c-1.037-0.564-2.176-0.655-3.207-0.258-2.073 0.797-3.025 3.359-2.121 5.712 0.722 1.873 2.406 3.055 4.109 3.055 0.435 0 0.871-0.077 1.292-0.239z"></path>
<path d="M12.476 12.712c2.592 0 4.7-2.402 4.7-5.355s-2.109-5.356-4.7-5.356c-2.591 0-4.7 2.403-4.7 5.356s2.108 5.355 4.7 5.355z"></path>
<path d="M20.594 14.027h0c0.399 0.132 0.805 0.196 1.21 0.196 1.89 0 3.732-1.376 4.435-3.49 0.405-1.217 0.378-2.504-0.075-3.623-0.474-1.172-1.353-2.022-2.474-2.395s-2.335-0.217-3.416 0.438c-1.033 0.625-1.824 1.64-2.229 2.857-0.853 2.567 0.29 5.267 2.549 6.018z"></path>
<path d="M30.492 13.402l-0.001-0.001c-1.787-1.32-4.46-0.748-5.959 1.276-1.497 2.025-1.263 4.748 0.522 6.070 0.651 0.482 1.42 0.713 2.207 0.713 1.372 0 2.799-0.7 3.753-1.988 1.497-2.025 1.263-4.748-0.522-6.070z"></path>
</symbol>
<symbol id="icon-menu" viewBox="0 0 20 20">
<path d="M0 3h20v2h-20v-2zM0 9h20v2h-20v-2zM0 15h20v2h-20v-2z"></path>
</symbol>
</defs>
</svg>
